<?xml version="1.0" encoding="UTF-8"?>
<!DOCTYPE svg PUBLIC "-//W3C//DTD SVG 1.1//EN" "http://www.w3.org/Graphics/SVG/1.1/DTD/svg11.dtd">
<svg version="1.1" xmlns="http://www.w3.org/2000/svg" xmlns:xlink="http://www.w3.org/1999/xlink" x="0" y="0" width="550" height="400" viewBox="0, 0, 550, 400">
  <g id="Capa_1">
    <g>
      <path d="M254.029,186.106 L254.029,223.554 L157.31,223.554 L157.31,220.635 C164.526,220.635 167.274,211.702 167.274,200.019 L167.274,126.322 C167.274,115.669 164.868,105.536 157.31,105.536 L157.31,102.614 L251.795,102.614 L251.795,135.255 L248.876,135.255 C244.925,105.536 198.367,105.536 198.367,105.536 L192.184,105.536 L192.184,161.025 L198.367,161.025 C198.367,161.025 224.481,161.025 226.198,143.158 L229.119,143.158 L229.119,181.81 L226.198,181.81 C224.481,163.944 198.367,163.944 198.367,163.944 L192.184,163.944 L192.184,220.635 L198.367,220.635 C198.367,220.635 243.894,220.635 251.108,186.106 z" fill="#C38845"/>
      <path d="M352.082,135.429 C352.082,105.536 338.511,105.536 321.846,105.536 L316.522,105.536 L316.522,165.491 L321.846,165.491 C338.511,165.491 352.082,165.317 352.082,135.429 M400.012,220.636 L400.012,223.555 L384.207,223.555 C353.628,223.386 358.095,223.386 346.07,186.107 C340.401,168.412 324.596,168.412 324.596,168.412 L316.522,168.412 L316.522,202.77 C316.522,214.452 322.019,220.636 329.233,220.636 L329.233,223.555 L279.242,223.555 L279.242,220.636 C286.63,220.636 291.612,214.452 291.612,202.77 L291.612,120.824 C291.612,110.174 286.801,105.536 279.242,105.536 L279.242,102.615 L321.846,102.615 C356.034,102.615 380.084,106.737 380.084,135.429 C380.084,156.387 367.028,164.117 346.585,166.521 C357.751,165.317 371.495,172.877 379.913,203.8 C383.347,216.856 395.545,220.29 400.012,220.636" fill="#C28747"/>
      <path d="M399,252 L158,252 L158,242 L399,242 z" fill="#C38845"/>
      <path d="M25.193,290.171 L25.193,297.094 L7.87,297.094 L7.87,296.607 C9.235,296.607 9.69,295.176 9.69,292.966 L9.69,278.178 C9.69,276.163 9.3,274.7 7.87,274.7 L7.87,274.213 L24.771,274.213 L24.771,280.226 L24.283,280.226 C23.731,274.733 16.515,274.7 15.183,274.7 L13.72,274.7 L13.72,285.296 L15.345,285.296 C15.8,285.296 19.993,285.296 20.253,281.981 L20.74,281.981 L20.74,289.131 L20.253,289.131 C19.993,285.783 15.768,285.783 15.345,285.783 L13.72,285.783 L13.72,296.607 L15.053,296.607 C16.483,296.607 23.666,296.671 24.706,290.171 z" fill="#C38845"/>
      <path d="M37.054,297.386 C31.269,297.386 28.734,295.469 28.734,295.469 L28.734,289.229 L29.221,289.229 C29.741,292.186 31.399,296.899 37.054,296.899 C41.246,296.899 42.124,291.796 38.224,289.001 L33.056,285.686 C29.189,283.216 26.848,280.128 29.449,276.423 C29.449,276.423 31.041,273.92 35.884,273.92 C41.019,273.92 43.749,275.481 43.749,275.481 L43.749,280.941 L43.262,280.941 C42.806,278.471 41.181,274.407 35.884,274.407 C32.374,274.407 30.391,278.828 34.941,281.785 L40.141,285.198 C44.464,288.059 45.732,291.601 43.652,294.721 C43.652,294.721 42.189,297.386 37.054,297.386" fill="#C38845"/>
      <path d="M66.596,290.301 L67.018,295.371 C64.613,296.964 62.37,297.386 58.893,297.386 C52.035,297.386 47.615,292.511 47.615,285.654 C47.615,278.763 52.035,273.92 58.893,273.92 C62.241,273.92 64.971,274.245 67.018,275.903 L66.596,280.973 L66.108,280.973 C64.743,276.098 62.046,274.407 58.893,274.407 C55.383,274.407 52.62,276.293 52.62,285.654 C52.62,295.112 55.48,296.899 58.893,296.899 C62.143,296.899 65.491,294.559 66.108,290.301 z" fill="#C38845"/>
      <path d="M80.634,274.407 C76.766,274.407 74.394,276.91 74.394,285.815 C74.394,294.754 76.766,296.898 80.634,296.898 C84.469,296.898 86.809,294.754 86.809,285.815 C86.809,276.91 84.469,274.407 80.634,274.407 M80.634,297.386 C73.484,297.386 69.746,292.283 69.746,285.815 C69.746,279.38 73.484,273.92 80.634,273.92 C87.784,273.92 91.522,279.38 91.522,285.815 C91.522,292.283 87.784,297.386 80.634,297.386" fill="#C38845"/>
      <path d="M101.691,285.751 L100.066,285.751 L100.066,296.606 L101.431,296.606 C104.389,296.606 107.216,296.671 107.216,291.113 C107.216,285.913 103.999,285.751 101.691,285.751 M100.066,274.7 L100.066,285.263 L101.691,285.263 C103.576,285.263 105.884,284.58 105.884,279.705 C105.884,274.896 103.186,274.7 101.431,274.7 z M101.334,297.094 L94.151,297.094 L94.151,296.801 C95.548,296.801 96.036,295.144 96.036,292.934 L96.036,278.373 C96.036,276.357 95.581,274.473 94.151,274.473 L94.151,274.213 L101.334,274.213 C105.851,274.213 109.881,274.245 109.881,279.771 C109.881,284.711 104.909,285.36 104.259,285.36 C106.371,285.36 111.409,285.751 111.409,291.275 C111.409,296.931 106.956,297.094 101.334,297.094" fill="#C38845"/>
      <path d="M125.09,289.943 L121.06,279.802 L117.322,289.943 z M133.93,297.093 L125.578,297.093 L125.578,296.606 C127.723,296.606 126.715,293.94 126.325,293.031 L125.285,290.43 L117.225,290.43 C116.77,291.73 115.047,296.8 119.89,296.606 L119.89,297.093 L112.252,297.093 L112.252,296.606 C113.292,296.573 114.105,296.606 117.095,289.033 L122.652,274.213 L123.075,274.213 C129.055,288.546 131.233,294.103 131.233,294.103 C132.305,296.703 133.053,296.541 133.93,296.606 z" fill="#C38845"/>
      <path d="M142.313,274.7 L141.305,274.7 L141.305,286.14 L142.313,286.14 C145.758,286.14 148.423,286.14 148.423,280.42 C148.423,274.635 145.628,274.7 142.313,274.7 M156.516,297.094 L153.786,297.094 C148.781,297.06 149.463,297.06 147.383,290.008 C146.408,286.628 143.255,286.628 142.833,286.628 L141.305,286.628 L141.305,293.421 C141.305,295.663 142.215,296.606 143.581,296.606 L143.581,297.094 L135.195,297.094 L135.195,296.606 C136.593,296.606 137.373,295.696 137.373,293.225 L137.373,277.397 C137.373,275.383 136.625,274.7 135.195,274.7 L135.195,274.213 L142.313,274.213 C148.781,274.213 152.876,274.993 152.876,280.42 C152.876,284.613 150.341,286.011 146.668,286.336 C148.813,286.27 151.218,287.083 152.843,293.583 C153.493,296.054 155.671,296.541 156.516,296.606 z" fill="#C38845"/>
      <path d="M172.99,274.7 L171.982,274.7 L171.982,286.14 L172.99,286.14 C176.435,286.14 179.1,286.14 179.1,280.42 C179.1,274.635 176.305,274.7 172.99,274.7 M187.193,297.094 L184.463,297.094 C179.458,297.06 180.14,297.06 178.06,290.008 C177.085,286.628 173.932,286.628 173.51,286.628 L171.982,286.628 L171.982,293.421 C171.982,295.663 172.892,296.606 174.258,296.606 L174.258,297.094 L165.872,297.094 L165.872,296.606 C167.27,296.606 168.05,295.696 168.05,293.225 L168.05,277.397 C168.05,275.383 167.302,274.7 165.872,274.7 L165.872,274.213 L172.99,274.213 C179.458,274.213 183.553,274.993 183.553,280.42 C183.553,284.613 181.018,286.011 177.345,286.336 C179.49,286.27 181.895,287.083 183.52,293.583 C184.17,296.054 186.348,296.541 187.193,296.606 z" fill="#C38845"/>
      <path d="M199.054,274.407 C195.186,274.407 192.814,276.91 192.814,285.815 C192.814,294.754 195.186,296.898 199.054,296.898 C202.889,296.898 205.229,294.754 205.229,285.815 C205.229,276.91 202.889,274.407 199.054,274.407 M199.054,297.386 C191.904,297.386 188.166,292.283 188.166,285.815 C188.166,279.38 191.904,273.92 199.054,273.92 C206.204,273.92 209.942,279.38 209.942,285.815 C209.942,292.283 206.204,297.386 199.054,297.386" fill="#C38845"/>
      <path d="M220.501,274.7 L219.071,274.7 L219.071,296.606 L220.501,296.606 C223.816,296.606 228.951,296.183 228.951,285.718 C228.951,275.415 223.881,274.7 220.501,274.7 M220.501,297.094 L212.701,297.094 L212.701,296.606 C214.098,296.606 215.008,295.143 215.008,292.933 L215.008,278.373 C215.008,276.357 214.131,274.7 212.701,274.7 L212.701,274.213 L220.501,274.213 C226.969,274.213 233.762,276.195 233.762,285.718 C233.762,295.403 226.969,297.094 220.501,297.094" fill="#C38845"/>
      <path d="M243.151,274.7 L242.143,274.7 L242.143,286.14 L243.151,286.14 C246.596,286.14 249.261,286.14 249.261,280.42 C249.261,274.635 246.466,274.7 243.151,274.7 M257.354,297.094 L254.624,297.094 C249.619,297.06 250.301,297.06 248.221,290.008 C247.246,286.628 244.093,286.628 243.671,286.628 L242.143,286.628 L242.143,293.421 C242.143,295.663 243.053,296.606 244.419,296.606 L244.419,297.094 L236.033,297.094 L236.033,296.606 C237.431,296.606 238.211,295.696 238.211,293.225 L238.211,277.397 C238.211,275.383 237.463,274.7 236.033,274.7 L236.033,274.213 L243.151,274.213 C249.619,274.213 253.714,274.993 253.714,280.42 C253.714,284.613 251.179,286.011 247.506,286.336 C249.651,286.27 252.056,287.083 253.681,293.583 C254.331,296.054 256.509,296.541 257.354,296.606 z" fill="#C38845"/>
      <path d="M264.697,267.907 L267.817,268.849 L260.017,273.205 L259.074,273.205 z M259.01,274.213 L268.077,274.213 L268.077,274.7 C266.68,274.7 265.542,275.415 265.542,277.43 L265.542,293.355 C265.542,295.598 266.712,296.606 268.077,296.606 L268.077,297.094 L259.01,297.094 L259.01,296.606 C260.374,296.606 261.545,295.598 261.545,293.355 L261.545,277.43 C261.545,275.415 260.44,274.7 259.01,274.7 z" fill="#C38845"/>
      <path d="M292.224,287.993 L292.224,288.48 C290.339,288.48 290.014,288.935 290.014,296.02 C287.998,296.801 285.139,297.386 281.661,297.386 C274.641,297.386 270.578,292.121 270.578,285.653 C270.578,279.185 274.641,273.92 281.661,273.92 C285.301,273.92 287.869,274.375 289.884,275.708 L289.656,281.102 L288.746,281.102 C288.031,275.87 285.496,274.407 281.661,274.407 C277.956,274.407 275.648,276.715 275.648,285.653 C275.648,294.591 278.021,296.898 281.661,296.898 C285.464,296.898 286.504,296.216 286.504,293.259 C286.504,288.61 285.821,288.48 283.806,288.48 L283.806,287.993 z" fill="#C38845"/>
      <path d="M296.023,289.195 L296.023,277.527 C296.023,275.447 295.015,274.7 293.585,274.7 L293.585,274.213 L302.815,274.213 L302.815,274.7 C301.418,274.7 299.988,275.123 299.988,277.56 L299.988,289.456 C299.988,293.388 302.393,295.696 305.708,295.696 C308.601,295.696 311.298,293.486 311.298,289.358 L311.298,280.128 C311.298,278.567 311.298,274.668 307.171,274.7 L307.171,274.213 L316.304,274.213 L316.304,274.7 C311.721,274.668 311.786,278.567 311.786,280.128 L311.786,289.358 C311.818,295.76 307.268,297.385 303.823,297.385 C299.533,297.385 296.023,294.493 296.023,289.195" fill="#C38845"/>
      <path d="M335.217,290.171 L335.217,297.094 L317.894,297.094 L317.894,296.607 C319.259,296.607 319.714,295.176 319.714,292.966 L319.714,278.178 C319.714,276.163 319.324,274.7 317.894,274.7 L317.894,274.213 L334.795,274.213 L334.795,280.226 L334.307,280.226 C333.755,274.733 326.539,274.7 325.207,274.7 L323.744,274.7 L323.744,285.296 L325.369,285.296 C325.824,285.296 330.017,285.296 330.277,281.981 L330.764,281.981 L330.764,289.131 L330.277,289.131 C330.017,285.783 325.792,285.783 325.369,285.783 L323.744,285.783 L323.744,296.607 L325.077,296.607 C326.507,296.607 333.69,296.671 334.73,290.171 z" fill="#C38845"/>
      <path d="M344.64,296.606 C350.522,296.606 353.61,292.77 354.39,289.52 L354.943,289.52 L354.13,297.093 L338.042,297.093 L350.653,274.7 L349.093,274.7 C343.925,274.7 340.48,276.812 339.44,280.778 L338.822,280.778 L339.407,274.212 L355.3,274.212 L343.47,296.606 z" fill="#C38845"/>
      <path d="M376.065,289.943 L372.035,279.802 L368.297,289.943 z M384.905,297.093 L376.553,297.093 L376.553,296.606 C378.698,296.606 377.69,293.94 377.3,293.031 L376.26,290.43 L368.2,290.43 C367.745,291.73 366.022,296.8 370.865,296.606 L370.865,297.093 L363.227,297.093 L363.227,296.606 C364.267,296.573 365.08,296.606 368.07,289.033 L373.627,274.213 L374.05,274.213 C380.03,288.546 382.208,294.103 382.208,294.103 C383.28,296.703 384.028,296.541 384.905,296.606 z" fill="#C38845"/>
      <path d="M394.133,285.751 L392.508,285.751 L392.508,296.606 L393.873,296.606 C396.831,296.606 399.658,296.671 399.658,291.113 C399.658,285.913 396.441,285.751 394.133,285.751 M392.508,274.7 L392.508,285.263 L394.133,285.263 C396.018,285.263 398.326,284.58 398.326,279.705 C398.326,274.896 395.628,274.7 393.873,274.7 z M393.776,297.094 L386.593,297.094 L386.593,296.801 C387.99,296.801 388.478,295.144 388.478,292.934 L388.478,278.373 C388.478,276.357 388.023,274.473 386.593,274.473 L386.593,274.213 L393.776,274.213 C398.293,274.213 402.323,274.245 402.323,279.771 C402.323,284.711 397.351,285.36 396.701,285.36 C398.813,285.36 403.851,285.751 403.851,291.275 C403.851,296.931 399.398,297.094 393.776,297.094" fill="#C38845"/>
      <path d="M417.597,274.407 C413.729,274.407 411.357,276.91 411.357,285.815 C411.357,294.754 413.729,296.898 417.597,296.898 C421.432,296.898 423.772,294.754 423.772,285.815 C423.772,276.91 421.432,274.407 417.597,274.407 M417.597,297.386 C410.447,297.386 406.709,292.283 406.709,285.815 C406.709,279.38 410.447,273.92 417.597,273.92 C424.747,273.92 428.485,279.38 428.485,285.815 C428.485,292.283 424.747,297.386 417.597,297.386" fill="#C38845"/>
      <path d="M452.825,287.993 L452.825,288.48 C450.94,288.48 450.615,288.935 450.615,296.02 C448.599,296.801 445.74,297.386 442.262,297.386 C435.242,297.386 431.179,292.121 431.179,285.653 C431.179,279.185 435.242,273.92 442.262,273.92 C445.902,273.92 448.47,274.375 450.485,275.708 L450.257,281.102 L449.347,281.102 C448.632,275.87 446.097,274.407 442.262,274.407 C438.557,274.407 436.249,276.715 436.249,285.653 C436.249,294.591 438.622,296.898 442.262,296.898 C446.065,296.898 447.105,296.216 447.105,293.259 C447.105,288.61 446.422,288.48 444.407,288.48 L444.407,287.993 z" fill="#C38845"/>
      <path d="M466.992,289.943 L462.962,279.802 L459.224,289.943 z M475.832,297.093 L467.48,297.093 L467.48,296.606 C469.625,296.606 468.617,293.94 468.227,293.031 L467.187,290.43 L459.127,290.43 C458.672,291.73 456.949,296.8 461.792,296.606 L461.792,297.093 L454.154,297.093 L454.154,296.606 C455.194,296.573 456.007,296.606 458.997,289.033 L464.554,274.213 L464.977,274.213 C470.957,288.546 473.135,294.103 473.135,294.103 C474.207,296.703 474.955,296.541 475.832,296.606 z" fill="#C38845"/>
      <path d="M485.45,274.7 L484.02,274.7 L484.02,296.606 L485.45,296.606 C488.765,296.606 493.9,296.183 493.9,285.718 C493.9,275.415 488.83,274.7 485.45,274.7 M485.45,297.094 L477.65,297.094 L477.65,296.606 C479.047,296.606 479.957,295.143 479.957,292.933 L479.957,278.373 C479.957,276.357 479.08,274.7 477.65,274.7 L477.65,274.213 L485.45,274.213 C491.918,274.213 498.711,276.195 498.711,285.718 C498.711,295.403 491.918,297.094 485.45,297.094" fill="#C38845"/>
      <path d="M512.423,274.407 C508.556,274.407 506.183,276.91 506.183,285.815 C506.183,294.754 508.556,296.898 512.423,296.898 C516.258,296.898 518.598,294.754 518.598,285.815 C518.598,276.91 516.258,274.407 512.423,274.407 M512.423,297.386 C505.273,297.386 501.535,292.283 501.535,285.815 C501.535,279.38 505.273,273.92 512.423,273.92 C519.573,273.92 523.311,279.38 523.311,285.815 C523.311,292.283 519.573,297.386 512.423,297.386" fill="#C38845"/>
      <path d="M534.554,297.386 C528.769,297.386 526.234,295.469 526.234,295.469 L526.234,289.229 L526.721,289.229 C527.241,292.186 528.899,296.899 534.554,296.899 C538.746,296.899 539.624,291.796 535.724,289.001 L530.556,285.686 C526.689,283.216 524.348,280.128 526.949,276.423 C526.949,276.423 528.541,273.92 533.384,273.92 C538.519,273.92 541.249,275.481 541.249,275.481 L541.249,280.941 L540.762,280.941 C540.306,278.471 538.681,274.407 533.384,274.407 C529.874,274.407 527.891,278.828 532.441,281.785 L537.641,285.198 C541.964,288.059 543.232,291.601 541.152,294.721 C541.152,294.721 539.689,297.386 534.554,297.386" fill="#C38845"/>
    </g>
  </g>
</svg>
