<?xml version="1.0" encoding="UTF-8"?>
<!DOCTYPE svg PUBLIC "-//W3C//DTD SVG 1.1//EN" "http://www.w3.org/Graphics/SVG/1.1/DTD/svg11.dtd">
<svg version="1.1" xmlns="http://www.w3.org/2000/svg" xmlns:xlink="http://www.w3.org/1999/xlink" x="0" y="0" width="55" height="55" viewBox="0, 0, 55, 55">
  <g id="Capa_1">
    <g>
      <path d="M25.403,26.111 L25.403,29.855 L15.731,29.855 L15.731,29.563 C16.453,29.563 16.727,28.67 16.727,27.502 L16.727,20.132 C16.727,19.067 16.487,18.054 15.731,18.054 L15.731,17.761 L25.179,17.761 L25.179,21.026 L24.888,21.026 C24.492,18.054 19.837,18.054 19.837,18.054 L19.218,18.054 L19.218,23.603 L19.837,23.603 C19.837,23.603 22.448,23.603 22.62,21.816 L22.912,21.816 L22.912,25.681 L22.62,25.681 C22.448,23.894 19.837,23.894 19.837,23.894 L19.218,23.894 L19.218,29.563 L19.837,29.563 C19.837,29.563 24.389,29.563 25.111,26.111 z" fill="#C38845"/>
      <path d="M35.208,21.043 C35.208,18.054 33.851,18.054 32.185,18.054 L31.652,18.054 L31.652,24.049 L32.185,24.049 C33.851,24.049 35.208,24.032 35.208,21.043 M40.001,29.564 L40.001,29.855 L38.421,29.855 C35.363,29.839 35.809,29.839 34.607,26.111 C34.04,24.341 32.46,24.341 32.46,24.341 L31.652,24.341 L31.652,27.777 C31.652,28.945 32.202,29.564 32.923,29.564 L32.923,29.855 L27.924,29.855 L27.924,29.564 C28.663,29.564 29.161,28.945 29.161,27.777 L29.161,19.582 C29.161,18.517 28.68,18.054 27.924,18.054 L27.924,17.762 L32.185,17.762 C35.603,17.762 38.008,18.174 38.008,21.043 C38.008,23.139 36.703,23.912 34.658,24.152 C35.775,24.032 37.149,24.788 37.991,27.88 C38.335,29.186 39.554,29.529 40.001,29.564" fill="#C28747"/>
      <path d="M39.9,32.7 L15.8,32.7 L15.8,31.7 L39.9,31.7 z" fill="#C38845"/>
      <path d="M2.519,36.517 L2.519,37.209 L0.787,37.209 L0.787,37.161 C0.924,37.161 0.969,37.017 0.969,36.796 L0.969,35.318 C0.969,35.116 0.93,34.97 0.787,34.97 L0.787,34.921 L2.477,34.921 L2.477,35.522 L2.428,35.522 C2.373,34.973 1.652,34.97 1.518,34.97 L1.372,34.97 L1.372,36.029 L1.535,36.029 C1.58,36.029 1.999,36.029 2.025,35.698 L2.074,35.698 L2.074,36.413 L2.025,36.413 C1.999,36.078 1.577,36.078 1.535,36.078 L1.372,36.078 L1.372,37.161 L1.505,37.161 C1.648,37.161 2.367,37.167 2.471,36.517 z" fill="#C38845"/>
      <path d="M3.705,37.238 C3.127,37.238 2.873,37.047 2.873,37.047 L2.873,36.423 L2.922,36.423 C2.974,36.718 3.14,37.19 3.705,37.19 C4.125,37.19 4.212,36.679 3.822,36.4 L3.306,36.068 C2.919,35.821 2.685,35.513 2.945,35.142 C2.945,35.142 3.104,34.892 3.588,34.892 C4.102,34.892 4.375,35.048 4.375,35.048 L4.375,35.594 L4.326,35.594 C4.281,35.347 4.118,34.941 3.588,34.941 C3.237,34.941 3.039,35.383 3.494,35.678 L4.014,36.02 C4.446,36.306 4.573,36.66 4.365,36.972 C4.365,36.972 4.219,37.238 3.705,37.238" fill="#C38845"/>
      <path d="M6.66,36.53 L6.702,37.037 C6.461,37.196 6.237,37.238 5.889,37.238 C5.203,37.238 4.761,36.751 4.761,36.065 C4.761,35.376 5.203,34.892 5.889,34.892 C6.224,34.892 6.497,34.924 6.702,35.09 L6.66,35.597 L6.611,35.597 C6.474,35.11 6.205,34.941 5.889,34.941 C5.538,34.941 5.262,35.129 5.262,36.065 C5.262,37.011 5.548,37.19 5.889,37.19 C6.214,37.19 6.549,36.956 6.611,36.53 z" fill="#C38845"/>
      <path d="M8.063,34.941 C7.677,34.941 7.439,35.191 7.439,36.081 C7.439,36.975 7.677,37.19 8.063,37.19 C8.447,37.19 8.681,36.975 8.681,36.081 C8.681,35.191 8.447,34.941 8.063,34.941 M8.063,37.238 C7.348,37.238 6.975,36.728 6.975,36.081 C6.975,35.438 7.348,34.892 8.063,34.892 C8.778,34.892 9.152,35.438 9.152,36.081 C9.152,36.728 8.778,37.238 8.063,37.238" fill="#C38845"/>
      <path d="M10.169,36.075 L10.007,36.075 L10.007,37.16 L10.143,37.16 C10.439,37.16 10.722,37.167 10.722,36.611 C10.722,36.091 10.4,36.075 10.169,36.075 M10.007,34.97 L10.007,36.026 L10.169,36.026 C10.358,36.026 10.588,35.958 10.588,35.47 C10.588,34.99 10.319,34.97 10.143,34.97 z M10.133,37.209 L9.415,37.209 L9.415,37.18 C9.555,37.18 9.604,37.014 9.604,36.793 L9.604,35.337 C9.604,35.136 9.558,34.947 9.415,34.947 L9.415,34.921 L10.133,34.921 C10.585,34.921 10.988,34.924 10.988,35.477 C10.988,35.971 10.491,36.036 10.426,36.036 C10.637,36.036 11.141,36.075 11.141,36.627 C11.141,37.193 10.696,37.209 10.133,37.209" fill="#C38845"/>
      <path d="M12.509,36.494 L12.106,35.48 L11.732,36.494 z M13.393,37.209 L12.558,37.209 L12.558,37.161 C12.772,37.161 12.671,36.894 12.632,36.803 L12.528,36.543 L11.722,36.543 C11.677,36.673 11.505,37.18 11.989,37.161 L11.989,37.209 L11.225,37.209 L11.225,37.161 C11.329,37.157 11.41,37.161 11.709,36.403 L12.265,34.921 L12.307,34.921 C12.905,36.355 13.123,36.91 13.123,36.91 C13.23,37.17 13.305,37.154 13.393,37.161 z" fill="#C38845"/>
      <path d="M14.231,34.97 L14.13,34.97 L14.13,36.114 L14.231,36.114 C14.576,36.114 14.842,36.114 14.842,35.542 C14.842,34.963 14.563,34.97 14.231,34.97 M15.652,37.209 L15.379,37.209 C14.878,37.206 14.946,37.206 14.738,36.501 C14.641,36.163 14.325,36.163 14.283,36.163 L14.13,36.163 L14.13,36.842 C14.13,37.066 14.221,37.161 14.358,37.161 L14.358,37.209 L13.519,37.209 L13.519,37.161 C13.659,37.161 13.737,37.07 13.737,36.822 L13.737,35.24 C13.737,35.038 13.662,34.97 13.519,34.97 L13.519,34.921 L14.231,34.921 C14.878,34.921 15.288,34.999 15.288,35.542 C15.288,35.961 15.034,36.101 14.667,36.134 C14.881,36.127 15.122,36.208 15.284,36.858 C15.349,37.105 15.567,37.154 15.652,37.161 z" fill="#C38845"/>
      <path d="M17.299,34.97 L17.198,34.97 L17.198,36.114 L17.299,36.114 C17.643,36.114 17.91,36.114 17.91,35.542 C17.91,34.963 17.63,34.97 17.299,34.97 M18.719,37.209 L18.446,37.209 C17.946,37.206 18.014,37.206 17.806,36.501 C17.708,36.163 17.393,36.163 17.351,36.163 L17.198,36.163 L17.198,36.842 C17.198,37.066 17.289,37.161 17.426,37.161 L17.426,37.209 L16.587,37.209 L16.587,37.161 C16.727,37.161 16.805,37.07 16.805,36.822 L16.805,35.24 C16.805,35.038 16.73,34.97 16.587,34.97 L16.587,34.921 L17.299,34.921 C17.946,34.921 18.355,34.999 18.355,35.542 C18.355,35.961 18.102,36.101 17.734,36.134 C17.949,36.127 18.189,36.208 18.352,36.858 C18.417,37.105 18.635,37.154 18.719,37.161 z" fill="#C38845"/>
      <path d="M19.905,34.941 C19.519,34.941 19.281,35.191 19.281,36.081 C19.281,36.975 19.519,37.19 19.905,37.19 C20.289,37.19 20.523,36.975 20.523,36.081 C20.523,35.191 20.289,34.941 19.905,34.941 M19.905,37.238 C19.19,37.238 18.817,36.728 18.817,36.081 C18.817,35.438 19.19,34.892 19.905,34.892 C20.62,34.892 20.994,35.438 20.994,36.081 C20.994,36.728 20.62,37.238 19.905,37.238" fill="#C38845"/>
      <path d="M22.05,34.97 L21.907,34.97 L21.907,37.161 L22.05,37.161 C22.382,37.161 22.895,37.118 22.895,36.072 C22.895,35.041 22.388,34.97 22.05,34.97 M22.05,37.209 L21.27,37.209 L21.27,37.161 C21.41,37.161 21.501,37.014 21.501,36.793 L21.501,35.337 C21.501,35.136 21.413,34.97 21.27,34.97 L21.27,34.921 L22.05,34.921 C22.697,34.921 23.376,35.119 23.376,36.072 C23.376,37.04 22.697,37.209 22.05,37.209" fill="#C38845"/>
      <path d="M24.315,34.97 L24.214,34.97 L24.214,36.114 L24.315,36.114 C24.66,36.114 24.926,36.114 24.926,35.542 C24.926,34.963 24.647,34.97 24.315,34.97 M25.735,37.209 L25.462,37.209 C24.962,37.206 25.03,37.206 24.822,36.501 C24.725,36.163 24.409,36.163 24.367,36.163 L24.214,36.163 L24.214,36.842 C24.214,37.066 24.305,37.161 24.442,37.161 L24.442,37.209 L23.603,37.209 L23.603,37.161 C23.743,37.161 23.821,37.07 23.821,36.822 L23.821,35.24 C23.821,35.038 23.746,34.97 23.603,34.97 L23.603,34.921 L24.315,34.921 C24.962,34.921 25.371,34.999 25.371,35.542 C25.371,35.961 25.118,36.101 24.751,36.134 C24.965,36.127 25.206,36.208 25.368,36.858 C25.433,37.105 25.651,37.154 25.735,37.161 z" fill="#C38845"/>
      <path d="M26.47,34.291 L26.782,34.385 L26.002,34.82 L25.907,34.82 z M25.901,34.921 L26.808,34.921 L26.808,34.97 C26.668,34.97 26.554,35.041 26.554,35.243 L26.554,36.835 C26.554,37.06 26.671,37.16 26.808,37.16 L26.808,37.209 L25.901,37.209 L25.901,37.16 C26.037,37.16 26.154,37.06 26.154,36.835 L26.154,35.243 C26.154,35.041 26.044,34.97 25.901,34.97 z" fill="#C38845"/>
      <path d="M29.222,36.299 L29.222,36.348 C29.034,36.348 29.001,36.393 29.001,37.102 C28.8,37.18 28.514,37.238 28.166,37.238 C27.464,37.238 27.058,36.712 27.058,36.065 C27.058,35.418 27.464,34.892 28.166,34.892 C28.53,34.892 28.787,34.937 28.988,35.071 L28.966,35.61 L28.875,35.61 C28.803,35.087 28.55,34.941 28.166,34.941 C27.796,34.941 27.565,35.171 27.565,36.065 C27.565,36.959 27.802,37.19 28.166,37.19 C28.546,37.19 28.65,37.122 28.65,36.826 C28.65,36.361 28.582,36.348 28.381,36.348 L28.381,36.299 z" fill="#C38845"/>
      <path d="M29.602,36.419 L29.602,35.253 C29.602,35.045 29.502,34.97 29.359,34.97 L29.359,34.921 L30.282,34.921 L30.282,34.97 C30.142,34.97 29.999,35.012 29.999,35.256 L29.999,36.446 C29.999,36.839 30.239,37.07 30.571,37.07 C30.86,37.07 31.13,36.849 31.13,36.436 L31.13,35.513 C31.13,35.357 31.13,34.967 30.717,34.97 L30.717,34.921 L31.63,34.921 L31.63,34.97 C31.172,34.967 31.179,35.357 31.179,35.513 L31.179,36.436 C31.182,37.076 30.727,37.238 30.382,37.238 C29.953,37.238 29.602,36.949 29.602,36.419" fill="#C38845"/>
      <path d="M33.522,36.517 L33.522,37.209 L31.789,37.209 L31.789,37.161 C31.926,37.161 31.971,37.017 31.971,36.796 L31.971,35.318 C31.971,35.116 31.932,34.97 31.789,34.97 L31.789,34.921 L33.479,34.921 L33.479,35.522 L33.431,35.522 C33.375,34.973 32.654,34.97 32.521,34.97 L32.374,34.97 L32.374,36.029 L32.537,36.029 C32.582,36.029 33.002,36.029 33.028,35.698 L33.076,35.698 L33.076,36.413 L33.028,36.413 C33.002,36.078 32.579,36.078 32.537,36.078 L32.374,36.078 L32.374,37.161 L32.508,37.161 C32.651,37.161 33.369,37.167 33.473,36.517 z" fill="#C38845"/>
      <path d="M34.464,37.161 C35.052,37.161 35.361,36.777 35.439,36.452 L35.494,36.452 L35.413,37.209 L33.804,37.209 L35.065,34.97 L34.909,34.97 C34.393,34.97 34.048,35.181 33.944,35.578 L33.882,35.578 L33.941,34.921 L35.53,34.921 L34.347,37.161 z" fill="#C38845"/>
      <path d="M37.607,36.494 L37.204,35.48 L36.83,36.494 z M38.491,37.209 L37.655,37.209 L37.655,37.161 C37.87,37.161 37.769,36.894 37.73,36.803 L37.626,36.543 L36.82,36.543 C36.775,36.673 36.602,37.18 37.087,37.161 L37.087,37.209 L36.323,37.209 L36.323,37.161 C36.427,37.157 36.508,37.161 36.807,36.403 L37.363,34.921 L37.405,34.921 C38.003,36.355 38.221,36.91 38.221,36.91 C38.328,37.17 38.403,37.154 38.491,37.161 z" fill="#C38845"/>
      <path d="M39.413,36.075 L39.251,36.075 L39.251,37.16 L39.387,37.16 C39.683,37.16 39.966,37.167 39.966,36.611 C39.966,36.091 39.644,36.075 39.413,36.075 M39.251,34.97 L39.251,36.026 L39.413,36.026 C39.602,36.026 39.833,35.958 39.833,35.47 C39.833,34.99 39.563,34.97 39.387,34.97 z M39.378,37.209 L38.659,37.209 L38.659,37.18 C38.799,37.18 38.848,37.014 38.848,36.793 L38.848,35.337 C38.848,35.136 38.802,34.947 38.659,34.947 L38.659,34.921 L39.378,34.921 C39.829,34.921 40.232,34.924 40.232,35.477 C40.232,35.971 39.735,36.036 39.67,36.036 C39.881,36.036 40.385,36.075 40.385,36.627 C40.385,37.193 39.94,37.209 39.378,37.209" fill="#C38845"/>
      <path d="M41.76,34.941 C41.373,34.941 41.136,35.191 41.136,36.081 C41.136,36.975 41.373,37.19 41.76,37.19 C42.143,37.19 42.377,36.975 42.377,36.081 C42.377,35.191 42.143,34.941 41.76,34.941 M41.76,37.238 C41.045,37.238 40.671,36.728 40.671,36.081 C40.671,35.438 41.045,34.892 41.76,34.892 C42.475,34.892 42.848,35.438 42.848,36.081 C42.848,36.728 42.475,37.238 41.76,37.238" fill="#C38845"/>
      <path d="M45.283,36.299 L45.283,36.348 C45.094,36.348 45.062,36.393 45.062,37.102 C44.86,37.18 44.574,37.238 44.226,37.238 C43.524,37.238 43.118,36.712 43.118,36.065 C43.118,35.418 43.524,34.892 44.226,34.892 C44.59,34.892 44.847,34.937 45.049,35.071 L45.026,35.61 L44.935,35.61 C44.863,35.087 44.61,34.941 44.226,34.941 C43.856,34.941 43.625,35.171 43.625,36.065 C43.625,36.959 43.862,37.19 44.226,37.19 C44.607,37.19 44.711,37.122 44.711,36.826 C44.711,36.361 44.642,36.348 44.441,36.348 L44.441,36.299 z" fill="#C38845"/>
      <path d="M46.699,36.494 L46.296,35.48 L45.922,36.494 z M47.583,37.209 L46.748,37.209 L46.748,37.161 C46.963,37.161 46.862,36.894 46.823,36.803 L46.719,36.543 L45.913,36.543 C45.867,36.673 45.695,37.18 46.179,37.161 L46.179,37.209 L45.415,37.209 L45.415,37.161 C45.519,37.157 45.601,37.161 45.9,36.403 L46.455,34.921 L46.498,34.921 C47.096,36.355 47.314,36.91 47.314,36.91 C47.421,37.17 47.496,37.154 47.583,37.161 z" fill="#C38845"/>
      <path d="M48.545,34.97 L48.402,34.97 L48.402,37.161 L48.545,37.161 C48.877,37.161 49.39,37.118 49.39,36.072 C49.39,35.041 48.883,34.97 48.545,34.97 M48.545,37.209 L47.765,37.209 L47.765,37.161 C47.905,37.161 47.996,37.014 47.996,36.793 L47.996,35.337 C47.996,35.136 47.908,34.97 47.765,34.97 L47.765,34.921 L48.545,34.921 C49.192,34.921 49.871,35.119 49.871,36.072 C49.871,37.04 49.192,37.209 48.545,37.209" fill="#C38845"/>
      <path d="M51.242,34.941 C50.856,34.941 50.618,35.191 50.618,36.081 C50.618,36.975 50.856,37.19 51.242,37.19 C51.626,37.19 51.86,36.975 51.86,36.081 C51.86,35.191 51.626,34.941 51.242,34.941 M51.242,37.238 C50.527,37.238 50.153,36.728 50.153,36.081 C50.153,35.438 50.527,34.892 51.242,34.892 C51.957,34.892 52.331,35.438 52.331,36.081 C52.331,36.728 51.957,37.238 51.242,37.238" fill="#C38845"/>
      <path d="M53.455,37.238 C52.877,37.238 52.623,37.047 52.623,37.047 L52.623,36.423 L52.672,36.423 C52.724,36.718 52.89,37.19 53.455,37.19 C53.875,37.19 53.962,36.679 53.572,36.4 L53.056,36.068 C52.669,35.821 52.435,35.513 52.695,35.142 C52.695,35.142 52.854,34.892 53.338,34.892 C53.852,34.892 54.125,35.048 54.125,35.048 L54.125,35.594 L54.076,35.594 C54.031,35.347 53.868,34.941 53.338,34.941 C52.987,34.941 52.789,35.383 53.244,35.678 L53.764,36.02 C54.196,36.306 54.323,36.66 54.115,36.972 C54.115,36.972 53.969,37.238 53.455,37.238" fill="#C38845"/>
    </g>
  </g>
</svg>
